<?xml version="1.0" encoding="UTF-8" standalone="no"?>
<svg
   height="24px"
   viewBox="0 -960 960 960"
   width="24px"
   fill="#000000"
   version="1.1"
   xmlns="http://www.w3.org/2000/svg"
   xmlns:svg="http://www.w3.org/2000/svg">
   <path
      d="m 640,-480 c -34,0 -62.5,-11.5 -85.5,-34.5 -23,-23 -34.5,-51.5 -34.5,-85.5 0,-33.33333 11.5,-61.66667 34.5,-85 23,-23.33333 51.5,-35 85.5,-35 33.33333,0 61.66667,11.66667 85,35 23.33333,23.33333 35,51.66667 35,85 0,34 -11.66667,62.5 -35,85.5 -23.33333,23 -51.66667,34.5 -85,34.5 z m 0,-80 c 11.33333,0 20.83333,-3.83333 28.5,-11.5 7.66667,-7.66667 11.5,-17.16667 11.5,-28.5 0,-11.33333 -3.83333,-20.83333 -11.5,-28.5 -7.66667,-7.66667 -17.16667,-11.5 -28.5,-11.5 -11.33333,0 -20.83333,3.83333 -28.5,11.5 -7.66667,7.66667 -11.5,17.16667 -11.5,28.5 0,11.33333 3.83333,20.83333 11.5,28.5 7.66667,7.66667 17.16667,11.5 28.5,11.5 z m -240,320 v -76 c 0,-14 3.5,-27.16667 10.5,-39.5 7,-12.33333 16.5,-22.16667 28.5,-29.5 30.66667,-18 62.83333,-31.66667 96.5,-41 33.66667,-9.33333 68.5,-14 104.5,-14 36,0 70.83333,4.66667 104.5,14 33.66667,9.33333 65.83333,23 96.5,41 12,7.33333 21.5,17.16667 28.5,29.5 7,12.33333 10.5,25.5 10.5,39.5 v 76 z m 240,-120 c -27.33333,0 -54,3.33333 -80,10 -26,6.66667 -50.66667,16.66667 -74,30 h 308 c -23.33333,-13.33333 -48,-23.33333 -74,-30 -26,-6.66667 -52.66667,-10 -80,-10 z m 0,40 H 794 486 Z M 80,-80 v -80 h 160 v -160 h 80 v 160 c 0,22 -7.83333,40.83333 -23.5,56.5 C 280.83333,-87.833333 262,-80 240,-80 Z m 160,-560 v -80 -80 H 160 80 v -80 h 160 c 22,0 40.83333,7.83333 56.5,23.5 15.66667,15.66667 23.5,34.5 23.5,56.5 v 160 z" />
</svg>
