<?xml version="1.0" encoding="UTF-8" standalone="no"?>
<svg
   height="24px"
   viewBox="0 -960 960 960"
   width="24px"
   fill="#000000"
   version="1.1"
   id="svg6405"
   sodipodi:docname="Risk.svg"
   inkscape:version="1.2.1 (9c6d41e410, 2022-07-14)"
   xmlns:inkscape="http://www.inkscape.org/namespaces/inkscape"
   xmlns:sodipodi="http://sodipodi.sourceforge.net/DTD/sodipodi-0.dtd"
   xmlns="http://www.w3.org/2000/svg"
   xmlns:svg="http://www.w3.org/2000/svg">
  <defs
     id="defs6409" />
  <sodipodi:namedview
     id="namedview6407"
     pagecolor="#ffffff"
     bordercolor="#000000"
     borderopacity="0.25"
     inkscape:showpageshadow="2"
     inkscape:pageopacity="0.0"
     inkscape:pagecheckerboard="0"
     inkscape:deskcolor="#d1d1d1"
     showgrid="false"
     inkscape:zoom="42.791667"
     inkscape:cx="12.630964"
     inkscape:cy="10.118793"
     inkscape:window-width="2560"
     inkscape:window-height="1369"
     inkscape:window-x="-8"
     inkscape:window-y="-8"
     inkscape:window-maximized="1"
     inkscape:current-layer="svg6405" />
  <path
     d="m 160,-200 v -15 15 -440 z m 0,80 c -22,0 -40.83333,-7.83333 -56.5,-23.5 C 87.833333,-159.16667 80,-178 80,-200 v -440 c 0,-22 7.833333,-40.83333 23.5,-56.5 15.66667,-15.66667 34.5,-23.5 56.5,-23.5 h 160 v -80 c 0,-22 7.83333,-40.83333 23.5,-56.5 15.66667,-15.66667 34.5,-23.5 56.5,-23.5 h 160 c 22,0 40.83333,7.83333 56.5,23.5 15.66667,15.66667 23.5,34.5 23.5,56.5 v 80 h 160 c 22,0 40.83333,7.83333 56.5,23.5 15.66667,15.66667 23.5,34.5 23.5,56.5 v 142.95716 c -12,-8.66667 -27.47095,-29.25333 -40.80428,-35.58666 0,0 -24.52905,-19.31142 -39.19572,-23.97809 V -640 H 160 v 440 h 215.69718 c 2,14 9.10751,28.73828 16.4781,41 7.17168,11.93083 20.21713,26.33333 26.21713,39 z m 240,-600 h 160 v -80 H 400 Z"
     id="path6558"
     sodipodi:nodetypes="cccccsssssscsssssscssscscccccscsccccc" />
  <path
     d="m 653.63194,-79.670255 c 14.08094,0 26.40176,-5.280342 36.96246,-15.841062 10.56072,-10.560693 15.84107,-22.881523 15.84107,-36.962433 0,-14.08093 -5.28035,-26.40175 -15.84107,-36.96246 -10.5607,-10.56071 -22.88152,-15.84105 -36.96246,-15.84105 -14.0809,0 -26.40173,5.28034 -36.96246,15.84105 -10.56068,10.56071 -15.84103,22.88153 -15.84103,36.96246 0,14.08091 5.28035,26.40174 15.84103,36.962433 10.56073,10.56072 22.88156,15.841062 36.96246,15.841062 z m -47.3645,-147.127235 h 91.76231 v -265.19187 h -91.76231 z m 47.36451,182.123685 c -70.85036,0 -131.24391,-24.968355 -181.18062,-74.905065 -49.9367,-49.9367 -74.90506,-110.33025 -74.90506,-181.18062 0,-70.85036 24.96836,-131.24391 74.90506,-181.18062 49.93671,-49.9367 110.33026,-74.90506 181.18062,-74.90506 70.85037,0 131.24392,24.96836 181.18062,74.90506 49.93671,49.93671 74.90507,110.33026 74.90507,181.18062 0,70.85037 -24.96836,131.24392 -74.90507,181.18062 -49.9367,49.93671 -110.33025,74.905065 -181.18062,74.905065 z"
     id="path6403"
     sodipodi:nodetypes="ssssssssscccccsssssssss"
     style="stroke-width:1.28043" />
</svg>
