<?xml version="1.0" encoding="UTF-8" standalone="no"?>
<svg
   height="24px"
   viewBox="0 -960 960 960"
   width="24px"
   fill="#000000"
   version="1.1"
   id="svg1172"
   sodipodi:docname="WorkpackageArtefact.svg"
   inkscape:version="1.2.1 (9c6d41e410, 2022-07-14)"
   xmlns:inkscape="http://www.inkscape.org/namespaces/inkscape"
   xmlns:sodipodi="http://sodipodi.sourceforge.net/DTD/sodipodi-0.dtd"
   xmlns="http://www.w3.org/2000/svg"
   xmlns:svg="http://www.w3.org/2000/svg">
  <defs
     id="defs1176" />
  <sodipodi:namedview
     id="namedview1174"
     pagecolor="#ffffff"
     bordercolor="#000000"
     borderopacity="0.25"
     inkscape:showpageshadow="2"
     inkscape:pageopacity="0.0"
     inkscape:pagecheckerboard="0"
     inkscape:deskcolor="#d1d1d1"
     showgrid="false"
     inkscape:zoom="42.791667"
     inkscape:cx="9.2074002"
     inkscape:cy="13.320351"
     inkscape:window-width="2560"
     inkscape:window-height="1369"
     inkscape:window-x="-8"
     inkscape:window-y="-8"
     inkscape:window-maximized="1"
     inkscape:current-layer="svg1172" />
  <path
     d="m 157.5073,-120.79844 c -22,0 -40.83332,-7.83338 -56.5,-23.5 -15.666622,-15.66668 -23.5,-34.5 -23.5,-56.5 v -440 c 0,-22 7.833378,-40.83338 23.5,-56.5 15.66668,-15.66668 34.5,-23.5 56.5,-23.5 h 160 v -80 c 0,-22 7.83338,-40.83338 23.5,-56.5 15.66668,-15.66668 34.5,-23.5 56.5,-23.5 h 160 c 22,0 40.83338,7.83332 56.5,23.5 15.66668,15.66662 23.5,34.5 23.5,56.5 v 80 h 160 c 22,0 40.83338,7.83332 56.5,23.5 15.6667,15.66662 23.5,34.5 23.5,56.5 v 440 c 0,22 -7.8333,40.83332 -23.5,56.5 -15.66662,15.66662 -34.5,23.5 -56.5,23.5 z m 0,-80 h 640 v -440 h -640 z m 240,-520 h 160 v -80 h -160 z m -240,520 v -440 z"
     id="path2512"
     style="stroke-width:1" />
  <path
     style="fill:none;stroke:#000000;stroke-width:72;stroke-dasharray:none"
     d="M 236.80623,-546.83543 H 718.20837"
     id="path4527" />
  <path
     style="fill:none;stroke:#000000;stroke-width:72;stroke-dasharray:none"
     d="M 236.80622,-418.77313 H 718.20837"
     id="path4527-9" />
  <path
     style="fill:none;stroke:#000000;stroke-width:72;stroke-dasharray:none"
     d="M 236.80622,-290.71083 H 718.20837"
     id="path4527-9-3" />
</svg>
